<svg width="337" height="127" viewBox="0 0 337 127" fill="none" xmlns="http://www.w3.org/2000/svg">
<g clip-path="url(#clip0_9_76)">
<mask id="mask0_9_76" style="mask-type:luminance" maskUnits="userSpaceOnUse" x="0" y="0" width="337" height="128">
<path d="M337 0H0V127.37H337V0Z" fill="white"/>
</mask>
<g mask="url(#mask0_9_76)">
<path d="M22.7223 42.8521H59.7976V64.2795H21.5282V127.37H0V48.8411C0 22.0324 21.8387 0.297211 48.7721 0.297211H72.9539V21.2602C65.3117 21.308 57.6695 21.3557 50.0272 21.4008C42.9582 21.4486 36.0351 23.9377 30.9032 28.7698C30.5688 29.0908 30.2345 29.4146 29.9001 29.7595C25.068 34.7827 23.3565 40.2569 22.7223 42.8521Z" fill="#00018A"/>
<path d="M227.807 113.322C218.538 122.323 206.101 127.37 193.149 127.37C180.197 127.37 167.555 121.989 158.584 113.288C156.838 111.597 155.211 109.774 153.73 107.848C147.33 99.5265 143.517 89.1458 143.517 77.9691C143.517 72.0278 141.734 66.5058 138.672 61.8992C133.423 54.0076 124.427 48.804 114.214 48.804C98.0326 48.804 84.9135 61.8621 84.9135 77.9691C84.9135 94.0735 98.0326 107.132 114.214 107.132C124.427 107.132 133.423 101.931 138.672 94.039C140.789 101.156 144.268 107.691 148.837 113.346C139.903 122.036 127.681 127.37 114.214 127.37C86.8028 127.37 64.582 105.253 64.582 77.9691C64.582 50.6854 86.8028 28.5681 114.214 28.5681C127.681 28.5681 139.903 33.9017 148.837 42.5894C150.607 44.293 152.247 46.1372 153.73 48.0902C160.091 56.3745 163.848 66.7446 163.848 77.9691C163.848 83.9077 165.629 89.4324 168.691 94.039C173.94 101.931 182.935 107.132 193.149 107.132C201.102 107.132 208.324 103.979 213.6 98.8366L227.807 113.322Z" fill="url(#paint0_linear_9_76)"/>
<path d="M228.239 43.0432L213.862 57.3511C208.566 52.0652 201.234 48.804 193.149 48.804C182.935 48.804 173.942 54.0076 168.691 61.8992C166.587 54.8037 163.119 48.2813 158.586 42.6504C167.555 33.9495 179.778 28.5681 193.149 28.5681C206.52 28.5681 218.947 33.7823 228.239 43.0432Z" fill="url(#paint1_linear_9_76)"/>
<path d="M254.743 28.5681H233.217V127.37H254.743V28.5681Z" fill="#00018A"/>
<path d="M254.743 1.52588e-05H233.217V21.4247H254.743V1.52588e-05Z" fill="#B700FA"/>
<path d="M261.916 127.37V105.943C271.174 106.025 279.259 106.001 285.835 105.943C303.786 105.776 311.68 105.324 313.344 101.18C313.917 99.7414 313.559 98.3589 313.344 97.6106C309.658 84.457 277.009 88.0499 265.503 70.2314C259.214 60.4822 259.286 44.5424 267.897 35.7114C274.379 29.0669 283.624 28.5787 287.031 28.5681H332.479V49.9954C324.454 50.0299 317.863 50.0193 313.344 49.9954C294.135 49.8999 284.914 49.5788 283.444 53.5671C283.109 54.4693 283.287 55.268 283.444 55.9473C284.818 62.0903 295.332 63.7089 307.363 67.8511C320.601 72.4099 327.217 74.684 331.282 79.7549C338.828 89.1458 338.985 105.335 331.282 115.466C325.529 123.024 317.422 127.37 304.972 127.37H261.916Z" fill="#00018A"/>
</g>
</g>
<defs>
<linearGradient id="paint0_linear_9_76" x1="64.582" y1="77.9691" x2="227.807" y2="77.9691" gradientUnits="userSpaceOnUse">
<stop stop-color="#B503FA"/>
<stop offset="1" stop-color="#4396FD"/>
</linearGradient>
<linearGradient id="paint1_linear_9_76" x1="98.3696" y1="45.2323" x2="192.61" y2="45.2323" gradientUnits="userSpaceOnUse">
<stop stop-color="#B503FA"/>
<stop offset="1" stop-color="#4396FD"/>
</linearGradient>
<clipPath id="clip0_9_76">
<rect width="337" height="127" fill="white"/>
</clipPath>
</defs>
</svg>
